<mxfile host="app.diagrams.net" modified="2020-06-06T17:57:09.181Z" agent="5.0 (Macintosh; Intel Mac OS X 10_14_0) AppleWebKit/537.36 (KHTML, like Gecko) Chrome/81.0.4044.138 Safari/537.36" etag="xDWSEcgpKh4x74Ljsn5y" version="13.1.14" type="github">
  <diagram name="Page-1" id="bd83a815-5ea8-2e97-e5ec-87c9f400f2fa">
    <mxGraphModel dx="946" dy="565" grid="1" gridSize="10" guides="1" tooltips="1" connect="1" arrows="1" fold="1" page="1" pageScale="1.5" pageWidth="1169" pageHeight="826" background="#ffffff" math="0" shadow="0" extFonts="https://fonts.google.com/specimen/Martel+Sans^https://fonts.googleapis.com/css?family=https%3A%2F%2Ffonts.google.com%2Fspecimen%2FMartel%2BSans|Martel+Sans^https://fonts.googleapis.com/css?family=Martel%2BSans|Martel Sans^https://fonts.googleapis.com/css?family=Martel+Sans">
      <root>
        <mxCell id="0" style=";html=1;" />
        <mxCell id="1" style=";html=1;" parent="0" />
        <mxCell id="Qp-HphKMrTElHFIgSeHp-2" value="&lt;table border=&quot;1&quot; style=&quot;box-sizing: border-box ; border-collapse: collapse ; border-spacing: 0px ; font-size: 17px ; padding: 0px ; width: 860px ; margin: 0px auto 0.5em ; overflow: scroll ; display: table ; border: 1px solid rgb(0 , 0 , 0) ; max-width: 100% ; font-style: normal ; font-weight: 400 ; font-stretch: inherit ; line-height: 1.65em ; outline: 0px ; vertical-align: baseline ; color: rgb(51 , 51 , 51) ; letter-spacing: normal ; text-indent: 0px ; text-transform: none ; word-spacing: 0px ; background-color: rgb(255 , 255 , 255)&quot;&gt;&lt;thead style=&quot;box-sizing: border-box ; font-family: inherit ; font-style: inherit ; font-variant: inherit ; font-weight: bold ; font-stretch: inherit ; font-size: inherit ; line-height: inherit ; margin: 0px ; outline: 0px ; padding: 0px ; vertical-align: baseline ; display: table-header-group&quot;&gt;&lt;tr style=&quot;box-sizing: border-box ; font: inherit ; margin: 0px ; outline: 0px ; padding: 0px ; vertical-align: baseline ; display: table-row&quot;&gt;&lt;td style=&quot;box-sizing: border-box ; margin: 0px ; padding: 3px ; font-variant: inherit ; font-weight: inherit ; font-stretch: inherit ; font-size: 18.88px ; line-height: 1.65em ; outline: 0px ; vertical-align: text-top ; display: table-cell ; text-indent: 0px ; text-align: left&quot;&gt;&lt;span class=&quot;left&quot; style=&quot;font-variant: inherit ; font-weight: inherit ; font-stretch: inherit ; font-size: inherit ; line-height: inherit ; box-sizing: border-box ; margin: 0px ; outline: 0px ; padding: 0px ; vertical-align: baseline ; text-align: left&quot;&gt;&lt;i&gt;&lt;font face=&quot;Helvetica&quot;&gt;Availability SLA&lt;/font&gt;&lt;/i&gt;&lt;/span&gt;&lt;/td&gt;&lt;td style=&quot;box-sizing: border-box ; margin: 0px ; padding: 3px ; font-variant: inherit ; font-weight: inherit ; font-stretch: inherit ; font-size: 18.88px ; line-height: 1.65em ; outline: 0px ; vertical-align: text-top ; display: table-cell ; text-indent: 0px ; text-align: left&quot;&gt;&lt;span class=&quot;left&quot; style=&quot;box-sizing: border-box ; font-variant: inherit ; font-weight: inherit ; font-stretch: inherit ; font-size: inherit ; line-height: inherit ; margin: 0px ; outline: 0px ; padding: 0px ; vertical-align: baseline ; text-align: left&quot;&gt;&lt;i&gt;&lt;font face=&quot;Helvetica&quot;&gt;Downtime / Day&lt;/font&gt;&lt;/i&gt;&lt;/span&gt;&lt;/td&gt;&lt;td style=&quot;box-sizing: border-box ; margin: 0px ; padding: 3px ; font-variant: inherit ; font-weight: inherit ; font-stretch: inherit ; font-size: 18.88px ; line-height: 1.65em ; outline: 0px ; vertical-align: text-top ; display: table-cell ; text-indent: 0px ; text-align: left&quot;&gt;&lt;span class=&quot;left&quot; style=&quot;box-sizing: border-box ; font-variant: inherit ; font-weight: inherit ; font-stretch: inherit ; font-size: inherit ; line-height: inherit ; margin: 0px ; outline: 0px ; padding: 0px ; vertical-align: baseline ; text-align: left&quot;&gt;&lt;i&gt;&lt;font face=&quot;Helvetica&quot;&gt;Downtime / Week&lt;/font&gt;&lt;/i&gt;&lt;/span&gt;&lt;/td&gt;&lt;td style=&quot;box-sizing: border-box ; margin: 0px ; padding: 3px ; font-variant: inherit ; font-weight: inherit ; font-stretch: inherit ; font-size: 18.88px ; line-height: 1.65em ; outline: 0px ; vertical-align: text-top ; display: table-cell ; text-indent: 0px ; text-align: left&quot;&gt;&lt;span class=&quot;left&quot; style=&quot;font-variant: inherit ; font-weight: inherit ; font-stretch: inherit ; font-size: inherit ; line-height: inherit ; box-sizing: border-box ; margin: 0px ; outline: 0px ; padding: 0px ; vertical-align: baseline ; text-align: left&quot;&gt;&lt;i&gt;&lt;font face=&quot;Helvetica&quot;&gt;Downtime / Month&lt;/font&gt;&lt;/i&gt;&lt;/span&gt;&lt;/td&gt;&lt;th style=&quot;border-collapse: collapse&quot;&gt;&lt;i&gt;&lt;font face=&quot;Helvetica&quot;&gt;&amp;nbsp;&lt;font style=&quot;font-size: 18.88px&quot;&gt;Downtime / Year&lt;/font&gt;&lt;/font&gt;&lt;/i&gt;&lt;/th&gt;&lt;/tr&gt;&lt;/thead&gt;&lt;tbody style=&quot;box-sizing: border-box ; max-width: 100% ; overflow: scroll ; font-size: 20px&quot;&gt;&lt;tr style=&quot;box-sizing: border-box ; font-style: inherit ; font-variant: inherit ; font-weight: inherit ; font-stretch: inherit ; font-size: inherit ; line-height: inherit ; margin: 0px ; outline: 0px ; padding: 0px ; vertical-align: baseline ; display: table-row&quot;&gt;&lt;td style=&quot;box-sizing: border-box ; margin: 0px ; padding: 10px ; font-style: inherit ; font-variant: inherit ; font-stretch: inherit ; line-height: 1.65em ; outline: 0px ; vertical-align: text-top ; display: table-cell ; text-indent: 0px&quot;&gt;&lt;span class=&quot;left&quot; style=&quot;font-style: inherit ; font-variant: inherit ; font-stretch: inherit ; font-size: inherit ; line-height: inherit ; box-sizing: border-box ; margin: 0px ; outline: 0px ; padding: 0px ; vertical-align: baseline&quot;&gt;&lt;font face=&quot;Martel Sans&quot; style=&quot;font-size: 20px&quot;&gt;99.00 %&lt;/font&gt;&lt;/span&gt;&lt;/td&gt;&lt;td style=&quot;box-sizing: border-box ; margin: 0px ; padding: 10px ; font-style: inherit ; font-variant: inherit ; font-weight: inherit ; font-stretch: inherit ; line-height: 1.65em ; outline: 0px ; vertical-align: text-top ; display: table-cell ; text-indent: 0px&quot;&gt;&lt;span class=&quot;left&quot; style=&quot;box-sizing: border-box ; font-style: inherit ; font-variant: inherit ; font-weight: inherit ; font-stretch: inherit ; font-size: inherit ; line-height: inherit ; margin: 0px ; outline: 0px ; padding: 0px ; vertical-align: baseline&quot;&gt;&lt;font face=&quot;Martel Sans&quot; style=&quot;font-size: 17px&quot;&gt;14.4 minutes&lt;/font&gt;&lt;/span&gt;&lt;/td&gt;&lt;td style=&quot;box-sizing: border-box ; margin: 0px ; padding: 10px ; font-style: inherit ; font-variant: inherit ; font-weight: inherit ; font-stretch: inherit ; line-height: 1.65em ; outline: 0px ; vertical-align: text-top ; display: table-cell ; text-indent: 0px ; text-align: left&quot;&gt;&lt;span class=&quot;left&quot; style=&quot;box-sizing: border-box ; font-style: inherit ; font-variant: inherit ; font-weight: inherit ; font-stretch: inherit ; font-size: inherit ; line-height: inherit ; margin: 0px ; outline: 0px ; padding: 0px ; vertical-align: baseline ; text-align: left&quot;&gt;&lt;font face=&quot;Martel Sans&quot; style=&quot;font-size: 17px&quot;&gt;1.68 hours&lt;/font&gt;&lt;/span&gt;&lt;/td&gt;&lt;td style=&quot;box-sizing: border-box ; margin: 0px ; padding: 10px ; font-style: inherit ; font-variant: inherit ; font-weight: inherit ; font-stretch: inherit ; line-height: 1.65em ; outline: 0px ; vertical-align: text-top ; display: table-cell ; text-indent: 0px ; text-align: left&quot;&gt;&lt;span class=&quot;left&quot; style=&quot;box-sizing: border-box ; font-style: inherit ; font-variant: inherit ; font-weight: inherit ; font-stretch: inherit ; font-size: inherit ; line-height: inherit ; margin: 0px ; outline: 0px ; padding: 0px ; vertical-align: baseline ; text-align: left&quot;&gt;&lt;font face=&quot;Martel Sans&quot; style=&quot;font-size: 17px&quot;&gt;7.31 hours&lt;/font&gt;&lt;/span&gt;&lt;/td&gt;&lt;td&gt;&lt;font face=&quot;Martel Sans&quot; style=&quot;font-size: 17px&quot;&gt;&amp;nbsp;36.55 minutes&lt;/font&gt;&lt;/td&gt;&lt;/tr&gt;&lt;tr style=&quot;box-sizing: border-box ; font-style: inherit ; font-variant: inherit ; font-weight: inherit ; font-stretch: inherit ; font-size: inherit ; line-height: inherit ; margin: 0px ; outline: 0px ; padding: 0px ; vertical-align: baseline ; display: table-row&quot;&gt;&lt;td style=&quot;box-sizing: border-box ; margin: 0px ; padding: 10px ; font-style: inherit ; font-variant: inherit ; font-weight: inherit ; font-stretch: inherit ; font-size: 18.88px ; line-height: 1.65em ; outline: 0px ; vertical-align: text-top ; display: table-cell ; text-indent: 0px ; text-align: left&quot;&gt;&lt;span class=&quot;left&quot; style=&quot;box-sizing: border-box ; font-style: inherit ; font-variant: inherit ; font-weight: inherit ; font-stretch: inherit ; font-size: inherit ; line-height: inherit ; margin: 0px ; outline: 0px ; padding: 0px ; vertical-align: baseline ; text-align: left&quot;&gt;&lt;font face=&quot;Martel Sans&quot; style=&quot;font-size: 20px&quot;&gt;99.90 %&lt;/font&gt;&lt;/span&gt;&lt;/td&gt;&lt;td style=&quot;box-sizing: border-box ; margin: 0px ; padding: 10px ; font-style: inherit ; font-variant: inherit ; font-weight: inherit ; font-stretch: inherit ; line-height: 1.65em ; outline: 0px ; vertical-align: text-top ; display: table-cell ; text-indent: 0px ; text-align: left&quot;&gt;&lt;span class=&quot;left&quot; style=&quot;box-sizing: border-box ; font-style: inherit ; font-variant: inherit ; font-weight: inherit ; font-stretch: inherit ; font-size: inherit ; line-height: inherit ; margin: 0px ; outline: 0px ; padding: 0px ; vertical-align: baseline ; text-align: left&quot;&gt;&lt;font face=&quot;Martel Sans&quot; style=&quot;font-size: 17px&quot;&gt;1.44 minutes&lt;/font&gt;&lt;/span&gt;&lt;/td&gt;&lt;td style=&quot;box-sizing: border-box ; margin: 0px ; padding: 10px ; font-style: inherit ; font-variant: inherit ; font-weight: inherit ; font-stretch: inherit ; line-height: 1.65em ; outline: 0px ; vertical-align: text-top ; display: table-cell ; text-indent: 0px ; text-align: left&quot;&gt;&lt;span class=&quot;left&quot; style=&quot;box-sizing: border-box ; font-style: inherit ; font-variant: inherit ; font-weight: inherit ; font-stretch: inherit ; font-size: inherit ; line-height: inherit ; margin: 0px ; outline: 0px ; padding: 0px ; vertical-align: baseline ; text-align: left&quot;&gt;&lt;font face=&quot;Martel Sans&quot; style=&quot;font-size: 17px&quot;&gt;10.08 minutes&lt;/font&gt;&lt;/span&gt;&lt;/td&gt;&lt;td style=&quot;box-sizing: border-box ; margin: 0px ; padding: 10px ; font-style: inherit ; font-variant: inherit ; font-weight: inherit ; font-stretch: inherit ; line-height: 1.65em ; outline: 0px ; vertical-align: text-top ; display: table-cell ; text-indent: 0px ; text-align: left&quot;&gt;&lt;span class=&quot;left&quot; style=&quot;box-sizing: border-box ; font-style: inherit ; font-variant: inherit ; font-weight: inherit ; font-stretch: inherit ; font-size: inherit ; line-height: inherit ; margin: 0px ; outline: 0px ; padding: 0px ; vertical-align: baseline ; text-align: left&quot;&gt;&lt;font face=&quot;Martel Sans&quot; style=&quot;font-size: 17px&quot;&gt;43.83 minutes&lt;/font&gt;&lt;/span&gt;&lt;/td&gt;&lt;td&gt;&lt;font face=&quot;Martel Sans&quot; style=&quot;font-size: 17px&quot;&gt;&amp;nbsp;3.65 minutes&lt;/font&gt;&lt;/td&gt;&lt;/tr&gt;&lt;tr style=&quot;box-sizing: border-box ; font-style: inherit ; font-variant: inherit ; font-weight: inherit ; font-stretch: inherit ; font-size: inherit ; line-height: inherit ; margin: 0px ; outline: 0px ; padding: 0px ; vertical-align: baseline ; display: table-row&quot;&gt;&lt;td style=&quot;box-sizing: border-box ; margin: 0px ; padding: 10px ; font-style: inherit ; font-variant: inherit ; font-weight: inherit ; font-stretch: inherit ; line-height: 1.65em ; outline: 0px ; vertical-align: text-top ; display: table-cell ; text-indent: 0px ; text-align: left&quot;&gt;&lt;span class=&quot;left&quot; style=&quot;box-sizing: border-box ; font-style: inherit ; font-variant: inherit ; font-weight: inherit ; font-stretch: inherit ; font-size: inherit ; line-height: inherit ; margin: 0px ; outline: 0px ; padding: 0px ; vertical-align: baseline ; text-align: left&quot;&gt;&lt;font face=&quot;Martel Sans&quot; style=&quot;font-size: 20px&quot;&gt;99.99 %&lt;/font&gt;&lt;/span&gt;&lt;/td&gt;&lt;td style=&quot;box-sizing: border-box ; margin: 0px ; padding: 10px ; font-style: inherit ; font-variant: inherit ; font-weight: inherit ; font-stretch: inherit ; line-height: 1.65em ; outline: 0px ; vertical-align: text-top ; display: table-cell ; text-indent: 0px ; text-align: left&quot;&gt;&lt;span class=&quot;left&quot; style=&quot;box-sizing: border-box ; font-style: inherit ; font-variant: inherit ; font-weight: inherit ; font-stretch: inherit ; font-size: inherit ; line-height: inherit ; margin: 0px ; outline: 0px ; padding: 0px ; vertical-align: baseline ; text-align: left&quot;&gt;&lt;font face=&quot;Martel Sans&quot; style=&quot;font-size: 17px&quot;&gt;8.64 seconds&lt;/font&gt;&lt;/span&gt;&lt;/td&gt;&lt;td style=&quot;box-sizing: border-box ; margin: 0px ; padding: 10px ; font-style: inherit ; font-variant: inherit ; font-weight: inherit ; font-stretch: inherit ; line-height: 1.65em ; outline: 0px ; vertical-align: text-top ; display: table-cell ; text-indent: 0px ; text-align: left&quot;&gt;&lt;span class=&quot;left&quot; style=&quot;box-sizing: border-box ; font-style: inherit ; font-variant: inherit ; font-weight: inherit ; font-stretch: inherit ; font-size: inherit ; line-height: inherit ; margin: 0px ; outline: 0px ; padding: 0px ; vertical-align: baseline ; text-align: left&quot;&gt;&lt;font face=&quot;Martel Sans&quot; style=&quot;font-size: 17px&quot;&gt;1.01 minutes&lt;/font&gt;&lt;/span&gt;&lt;/td&gt;&lt;td style=&quot;box-sizing: border-box ; margin: 0px ; padding: 10px ; font-style: inherit ; font-variant: inherit ; font-weight: inherit ; font-stretch: inherit ; line-height: 1.65em ; outline: 0px ; vertical-align: text-top ; display: table-cell ; text-indent: 0px ; text-align: left&quot;&gt;&lt;span class=&quot;left&quot; style=&quot;box-sizing: border-box ; font-style: inherit ; font-variant: inherit ; font-weight: inherit ; font-stretch: inherit ; font-size: inherit ; line-height: inherit ; margin: 0px ; outline: 0px ; padding: 0px ; vertical-align: baseline ; text-align: left&quot;&gt;&lt;font face=&quot;Martel Sans&quot; style=&quot;font-size: 17px&quot;&gt;4.38 minutes&lt;/font&gt;&lt;/span&gt;&lt;/td&gt;&lt;td&gt;&lt;font face=&quot;Martel Sans&quot; style=&quot;font-size: 17px&quot;&gt;&amp;nbsp;21.9 seconds&lt;/font&gt;&lt;/td&gt;&lt;/tr&gt;&lt;tr style=&quot;box-sizing: border-box ; font-style: inherit ; font-variant: inherit ; font-weight: inherit ; font-stretch: inherit ; font-size: inherit ; line-height: inherit ; margin: 0px ; outline: 0px ; padding: 0px ; vertical-align: baseline ; display: table-row&quot;&gt;&lt;td style=&quot;box-sizing: border-box ; margin: 0px ; padding: 10px ; font-style: inherit ; font-variant: inherit ; font-weight: inherit ; font-stretch: inherit ; line-height: 1.65em ; outline: 0px ; vertical-align: text-top ; display: table-cell ; text-indent: 0px ; text-align: left&quot;&gt;&lt;span class=&quot;left&quot; style=&quot;box-sizing: border-box ; font-style: inherit ; font-variant: inherit ; font-weight: inherit ; font-stretch: inherit ; font-size: inherit ; line-height: inherit ; margin: 0px ; outline: 0px ; padding: 0px ; vertical-align: baseline ; text-align: left&quot;&gt;&lt;font face=&quot;Martel Sans&quot; style=&quot;font-size: 20px&quot;&gt;99.999 %&lt;/font&gt;&lt;/span&gt;&lt;/td&gt;&lt;td style=&quot;box-sizing: border-box ; margin: 0px ; padding: 10px ; font-style: inherit ; font-variant: inherit ; font-weight: inherit ; font-stretch: inherit ; line-height: 1.65em ; outline: 0px ; vertical-align: text-top ; display: table-cell ; text-indent: 0px ; text-align: left&quot;&gt;&lt;span class=&quot;left&quot; style=&quot;box-sizing: border-box ; font-style: inherit ; font-variant: inherit ; font-weight: inherit ; font-stretch: inherit ; font-size: inherit ; line-height: inherit ; margin: 0px ; outline: 0px ; padding: 0px ; vertical-align: baseline ; text-align: left&quot;&gt;&lt;font face=&quot;Martel Sans&quot; style=&quot;font-size: 17px&quot;&gt;864 milliseconds&lt;/font&gt;&lt;/span&gt;&lt;/td&gt;&lt;td style=&quot;box-sizing: border-box ; margin: 0px ; padding: 10px ; font-style: inherit ; font-variant: inherit ; font-weight: inherit ; font-stretch: inherit ; line-height: 1.65em ; outline: 0px ; vertical-align: text-top ; display: table-cell ; text-indent: 0px ; text-align: left&quot;&gt;&lt;span class=&quot;left&quot; style=&quot;box-sizing: border-box ; font-style: inherit ; font-variant: inherit ; font-weight: inherit ; font-stretch: inherit ; font-size: inherit ; line-height: inherit ; margin: 0px ; outline: 0px ; padding: 0px ; vertical-align: baseline ; text-align: left&quot;&gt;&lt;font face=&quot;Martel Sans&quot; style=&quot;font-size: 17px&quot;&gt;6.05 seconds&lt;/font&gt;&lt;/span&gt;&lt;/td&gt;&lt;td style=&quot;box-sizing: border-box ; margin: 0px ; padding: 10px ; font-style: inherit ; font-variant: inherit ; font-weight: inherit ; font-stretch: inherit ; line-height: 1.65em ; outline: 0px ; vertical-align: text-top ; display: table-cell ; text-indent: 0px ; text-align: left&quot;&gt;&lt;span class=&quot;left&quot; style=&quot;box-sizing: border-box ; font-style: inherit ; font-variant: inherit ; font-weight: inherit ; font-stretch: inherit ; font-size: inherit ; line-height: inherit ; margin: 0px ; outline: 0px ; padding: 0px ; vertical-align: baseline ; text-align: left&quot;&gt;&lt;font face=&quot;Martel Sans&quot; style=&quot;font-size: 17px&quot;&gt;26.3 seconds&lt;/font&gt;&lt;/span&gt;&lt;/td&gt;&lt;td&gt;&lt;font face=&quot;Martel Sans&quot; style=&quot;font-size: 17px&quot;&gt;&amp;nbsp;2.19 seconds&lt;/font&gt;&lt;/td&gt;&lt;/tr&gt;&lt;tr style=&quot;box-sizing: border-box ; font: inherit ; margin: 0px ; outline: 0px ; padding: 0px ; vertical-align: baseline ; display: table-row&quot;&gt;&lt;td style=&quot;box-sizing: border-box ; margin: 0px ; padding: 10px ; font-style: inherit ; font-variant: inherit ; font-weight: inherit ; font-stretch: inherit ; line-height: 1.65em ; outline: 0px ; vertical-align: text-top ; display: table-cell ; text-indent: 0px ; text-align: left&quot;&gt;&lt;span class=&quot;left&quot; style=&quot;box-sizing: border-box ; font-style: inherit ; font-variant: inherit ; font-weight: inherit ; font-stretch: inherit ; font-size: inherit ; line-height: inherit ; margin: 0px ; outline: 0px ; padding: 0px ; vertical-align: baseline ; text-align: left&quot;&gt;&lt;font face=&quot;Martel Sans&quot; style=&quot;font-size: 20px&quot;&gt;99.9999 %&lt;/font&gt;&lt;/span&gt;&lt;/td&gt;&lt;td style=&quot;box-sizing: border-box ; margin: 0px ; padding: 10px ; font-style: inherit ; font-variant: inherit ; font-weight: inherit ; font-stretch: inherit ; line-height: 1.65em ; outline: 0px ; vertical-align: text-top ; display: table-cell ; text-indent: 0px ; text-align: left&quot;&gt;&lt;span class=&quot;left&quot; style=&quot;box-sizing: border-box ; font-style: inherit ; font-variant: inherit ; font-weight: inherit ; font-stretch: inherit ; font-size: inherit ; line-height: inherit ; margin: 0px ; outline: 0px ; padding: 0px ; vertical-align: baseline ; text-align: left&quot;&gt;&lt;font face=&quot;Martel Sans&quot; style=&quot;font-size: 17px&quot;&gt;86.4 milliseconds&lt;/font&gt;&lt;/span&gt;&lt;/td&gt;&lt;td style=&quot;box-sizing: border-box ; margin: 0px ; padding: 10px ; font-style: inherit ; font-variant: inherit ; font-weight: inherit ; font-stretch: inherit ; line-height: 1.65em ; outline: 0px ; vertical-align: text-top ; display: table-cell ; text-indent: 0px ; text-align: left&quot;&gt;&lt;span class=&quot;left&quot; style=&quot;box-sizing: border-box ; font-style: inherit ; font-variant: inherit ; font-weight: inherit ; font-stretch: inherit ; font-size: inherit ; line-height: inherit ; margin: 0px ; outline: 0px ; padding: 0px ; vertical-align: baseline ; text-align: left&quot;&gt;&lt;font face=&quot;Martel Sans&quot; style=&quot;font-size: 17px&quot;&gt;604.8 milliseconds&lt;/font&gt;&lt;/span&gt;&lt;/td&gt;&lt;td style=&quot;box-sizing: border-box ; margin: 0px ; padding: 10px ; font-style: inherit ; font-variant: inherit ; font-weight: inherit ; font-stretch: inherit ; line-height: 1.65em ; outline: 0px ; vertical-align: text-top ; display: table-cell ; text-indent: 0px ; text-align: left&quot;&gt;&lt;span class=&quot;left&quot; style=&quot;font-style: inherit ; font-variant: inherit ; font-weight: inherit ; font-stretch: inherit ; font-size: inherit ; line-height: inherit ; box-sizing: border-box ; margin: 0px ; outline: 0px ; padding: 0px ; vertical-align: baseline ; text-align: left&quot;&gt;&lt;font face=&quot;Martel Sans&quot; style=&quot;font-size: 17px&quot;&gt;2.63 seconds&lt;/font&gt;&lt;/span&gt;&lt;/td&gt;&lt;td&gt;&lt;font face=&quot;Martel Sans&quot; style=&quot;font-size: 17px&quot;&gt;&amp;nbsp;0.21 seconds&lt;/font&gt;&lt;/td&gt;&lt;/tr&gt;&lt;/tbody&gt;&lt;/table&gt;" style="text;whiteSpace=wrap;html=1;fillColor=none;strokeColor=#000000;dashed=1;dashPattern=1 2;fontFamily=Martel+Sans;FType=g;" parent="1" vertex="1">
          <mxGeometry x="40" y="110" height="10" as="geometry" />
        </mxCell>
      </root>
    </mxGraphModel>
  </diagram>
</mxfile>
